<?xml version="1.0" standalone="no"?>
<!DOCTYPE svg PUBLIC "-//W3C//DTD SVG 20010904//EN"
 "http://www.w3.org/TR/2001/REC-SVG-20010904/DTD/svg10.dtd">
<svg version="1.0" xmlns="http://www.w3.org/2000/svg"
 width="245.000000pt" height="245.000000pt" viewBox="0 0 245.000000 245.000000"
 preserveAspectRatio="xMidYMid meet">
<metadata>
Created by potrace 1.14, written by Peter Selinger 2001-2017
</metadata>
<g transform="translate(0.000000,245.000000) scale(0.100000,-0.100000)"
fill="#000000" stroke="none">
<path d="M1133 2229 c-87 -27 -193 -133 -193 -194 0 -8 -4 -15 -8 -15 -9 0
-11 -21 -14 -222 -3 -157 1 -180 32 -186 56 -12 153 -75 229 -149 46 -46 86
-83 89 -83 12 0 142 -140 142 -153 0 -8 -9 -22 -20 -32 -29 -26 -83 -7 -146
50 -134 123 -174 142 -122 56 26 -41 127 -141 145 -141 6 0 13 -4 15 -8 5 -13
90 -49 133 -57 50 -10 159 -10 204 -1 19 4 60 15 91 26 96 32 195 46 206 29 3
-5 9 -7 14 -4 11 7 50 -25 50 -41 0 -9 -51 -37 -90 -49 -3 -1 -36 -16 -75 -34
-38 -18 -74 -34 -80 -35 -5 -1 -35 -13 -65 -28 -30 -14 -65 -29 -77 -32 -13
-4 -23 -10 -23 -14 0 -9 346 -6 414 3 103 13 194 79 242 175 24 46 28 68 28
135 0 68 -4 89 -28 138 -16 31 -32 57 -36 57 -5 0 -11 8 -14 18 -6 18 -42 42
-114 77 -47 23 -84 26 -347 28 l-160 2 -1 205 c-2 266 -13 314 -91 396 -84 90
-206 121 -330 83z"/>
<path d="M369 1484 c-28 -9 -56 -27 -77 -51 -35 -38 -67 -93 -56 -93 4 0 0 -7
-7 -17 -9 -11 -14 -43 -14 -97 1 -68 5 -90 28 -138 45 -89 128 -154 227 -174
19 -3 127 -7 240 -8 l205 -1 2 -195 c1 -107 4 -214 6 -236 7 -62 52 -143 105
-191 180 -163 479 -58 518 182 5 33 8 274 5 412 l-1 32 -36 -15 c-35 -15 -117
-26 -184 -25 -69 1 -116 13 -197 52 -83 39 -151 99 -265 230 -77 89 -230 244
-273 276 -38 28 -91 54 -125 61 -43 8 -60 8 -101 -4z"/>
</g>
</svg>
