<?xml version="1.0" standalone="no"?>
<!DOCTYPE svg PUBLIC "-//W3C//DTD SVG 20010904//EN"
 "http://www.w3.org/TR/2001/REC-SVG-20010904/DTD/svg10.dtd">
<svg version="1.0" xmlns="http://www.w3.org/2000/svg"
 width="241.000000pt" height="241.000000pt" viewBox="0 0 241.000000 241.000000"
 preserveAspectRatio="xMidYMid meet">
<metadata>
Created by potrace 1.11, written by Peter Selinger 2001-2013
</metadata>
<g transform="translate(0.000000,241.000000) scale(0.100000,-0.100000)"
fill="#000000" stroke="none">
<path d="M626 2012 c-3 -4 -25 -7 -50 -7 -25 1 -46 -2 -46 -7 0 -5 -4 -7 -9
-3 -5 3 -12 1 -16 -5 -4 -6 -10 -8 -14 -5 -32 19 -233 -145 -247 -202 -4 -13
-10 -23 -15 -23 -8 0 -34 -78 -31 -92 1 -5 -2 -8 -6 -8 -10 0 -11 -8 -12 -122
0 -47 4 -98 10 -112 5 -14 6 -26 3 -26 -4 0 -2 -5 5 -12 7 -7 12 -20 12 -30 0
-10 5 -18 10 -18 6 0 9 -3 8 -7 -3 -13 29 -65 62 -102 16 -18 30 -38 30 -42 0
-5 3 -8 8 -6 4 1 7 -2 7 -6 0 -13 54 -39 65 -32 6 3 10 1 10 -5 0 -6 5 -8 12
-4 12 8 305 7 318 -1 5 -3 11 1 13 7 4 10 8 10 15 -1 5 -7 12 -9 15 -4 3 5 28
7 55 6 l50 -3 23 50 c12 27 26 50 31 50 4 0 8 8 8 19 0 10 9 30 20 44 11 14
20 30 20 36 0 7 9 21 20 33 10 12 17 25 14 29 -6 10 36 39 58 39 19 0 58 -29
58 -43 0 -5 7 -23 15 -40 21 -47 60 -151 60 -162 0 -5 6 -16 13 -23 7 -8 10
-18 7 -23 -4 -5 -3 -9 2 -9 4 0 14 -18 21 -41 7 -22 22 -60 33 -83 11 -24 21
-53 22 -64 0 -11 5 -18 9 -16 4 3 8 -7 8 -22 0 -26 1 -27 20 -9 11 10 23 27
26 39 4 11 18 38 31 59 13 20 20 37 17 37 -4 0 0 8 9 18 10 10 14 22 10 25 -3
4 -1 7 5 7 7 0 12 6 12 13 0 15 47 40 60 32 5 -3 11 1 14 7 5 10 7 10 12 0 5
-10 9 -10 20 -1 11 9 14 8 14 -2 0 -11 3 -11 11 1 8 12 12 12 16 2 4 -10 8
-10 19 -1 11 9 14 8 14 -2 0 -11 3 -11 11 1 8 12 12 12 16 2 4 -10 8 -10 19
-1 11 9 14 8 14 -2 0 -11 3 -11 11 1 8 11 12 12 16 2 2 -6 10 -9 16 -5 17 10
47 11 47 1 0 -5 6 -6 12 -2 18 11 48 12 48 2 0 -5 5 -6 12 -2 6 4 45 7 86 7
70 -1 77 1 103 28 16 16 26 29 24 29 -3 0 13 19 35 43 22 23 46 57 52 75 7 17
16 32 22 32 5 0 7 3 3 6 -3 3 -1 18 5 33 16 42 19 61 19 141 0 100 -4 130 -21
160 -7 14 -12 25 -10 25 10 0 -46 101 -66 120 -13 12 -24 27 -24 34 0 6 -3 11
-7 11 -5 0 -21 13 -38 28 -16 15 -45 34 -62 41 -18 7 -33 17 -33 21 0 4 -17
11 -37 15 -21 4 -42 10 -48 13 -18 12 -219 10 -234 -2 -8 -6 -15 -10 -15 -8
-2 8 -63 -13 -88 -29 -14 -11 -29 -19 -32 -19 -6 0 -43 -31 -104 -87 -19 -18
-39 -33 -43 -33 -5 0 -9 -7 -9 -16 0 -8 -4 -12 -10 -9 -5 3 -10 -1 -10 -9 0
-9 -7 -16 -17 -16 -9 0 -13 -3 -10 -7 4 -3 -7 -16 -23 -28 -16 -12 -27 -25
-23 -28 3 -4 1 -7 -5 -7 -6 0 -18 -7 -27 -16 -21 -22 -34 -13 -175 128 -63 63
-136 126 -162 141 -56 32 -139 55 -190 53 -21 -2 -38 1 -38 6 0 10 -17 10 -24
0z"/>
<path d="M1058 1279 c-12 -12 -13 -19 -5 -23 9 -3 8 -5 -1 -5 -11 -1 -36 -49
-32 -60 1 -2 -2 -7 -7 -10 -5 -3 -19 -26 -32 -51 -43 -85 -35 -82 -279 -85
-120 -1 -220 -3 -225 -3 -14 -3 542 -551 575 -565 54 -25 80 -30 143 -29 73 2
125 11 142 26 32 29 43 36 43 31 0 -4 122 116 270 265 149 150 270 273 270
274 0 2 -86 2 -192 2 l-192 -1 -23 -34 c-12 -18 -20 -38 -16 -44 3 -5 2 -7 -3
-4 -5 3 -23 -20 -39 -51 -16 -31 -33 -60 -38 -63 -5 -3 -8 -9 -8 -13 2 -14
-33 -75 -41 -70 -4 3 -8 1 -8 -5 0 -5 -12 -8 -27 -5 -31 6 -60 36 -69 74 -4
14 -15 42 -26 63 -10 20 -16 37 -13 37 3 0 -2 11 -11 25 -9 14 -13 25 -10 25
4 0 -1 11 -10 25 -9 14 -13 25 -10 25 4 0 1 10 -6 23 -7 12 -11 25 -10 30 1 4
-3 7 -9 7 -5 0 -8 4 -5 8 3 5 -2 21 -9 36 -8 16 -13 32 -10 36 3 5 1 10 -5 12
-6 2 -12 14 -15 28 -3 14 -9 26 -15 28 -5 2 -10 14 -10 27 0 31 -11 36 -32 14z"/>
</g>
</svg>
